<?xml version="1.0" standalone="no"?>
<!DOCTYPE svg PUBLIC "-//W3C//DTD SVG 20010904//EN"
 "http://www.w3.org/TR/2001/REC-SVG-20010904/DTD/svg10.dtd">
<svg version="1.0" xmlns="http://www.w3.org/2000/svg"
 width="360.000000pt" height="81.000000pt" viewBox="0 0 360.000000 81.000000"
 preserveAspectRatio="xMidYMid meet">

<g transform="translate(0.000000,81.000000) scale(0.100000,-0.100000)"
fill="#FFFFFF" stroke="none">
<path d="M355 703 c-107 -14 -195 -66 -231 -134 -41 -81 6 -222 89 -266 37
-19 228 -30 321 -18 l56 6 -3 71 c-2 70 -2 71 26 79 26 7 27 6 27 -34 0 -23
-3 -93 -7 -154 l-6 -113 -39 0 c-26 0 -38 -4 -38 -14 0 -22 24 -26 151 -26
112 0 119 1 119 20 0 17 -7 20 -40 20 l-40 0 0 70 0 70 38 0 c35 0 43 -6 89
-63 91 -111 85 -107 165 -107 l72 0 -30 31 c-16 17 -60 56 -98 87 -61 50 -66
58 -50 67 10 5 31 22 47 38 l29 27 1284 0 c1135 0 1284 2 1284 15 0 13 -149
15 -1280 15 l-1280 0 0 28 c0 35 -8 45 -50 68 -30 16 -62 19 -219 22 l-184 4
6 -23 c6 -22 5 -22 -74 -16 -73 6 -79 5 -79 -12 0 -20 19 -31 51 -31 16 0 19
-7 19 -54 0 -52 -1 -55 -27 -58 -52 -6 -163 11 -193 29 -38 22 -69 85 -71 144
-3 58 10 80 67 118 40 26 57 31 110 31 75 0 114 -13 121 -40 6 -23 26 -25 72
-9 38 13 39 32 5 64 -46 43 -119 60 -209 48z m539 -264 c54 -43 19 -115 -59
-119 -98 -6 -95 -8 -95 70 l0 70 64 0 c49 0 69 -5 90 -21z"/>
<path d="M1272 565 c-24 -41 -51 -79 -60 -85 -13 -7 -6 -9 28 -9 25 1 37 3 28
6 -19 5 -22 12 -12 37 4 11 19 16 50 16 34 0 46 -5 55 -21 9 -17 8 -23 -2 -30
-9 -5 9 -9 46 -9 55 0 58 1 39 15 -12 8 -40 46 -63 85 -23 38 -47 70 -54 70
-7 0 -32 -34 -55 -75z m43 -23 c-35 -4 -39 1 -24 29 l12 23 20 -25 19 -24 -27
-3z"/>
<path d="M1503 629 c30 -18 21 -144 -12 -152 -9 -3 34 -5 94 -6 92 -1 115 2
141 18 62 38 48 112 -27 138 -43 15 -222 17 -196 2z m156 -14 c46 -23 56 -80
20 -116 -15 -15 -30 -19 -62 -17 -38 3 -42 6 -45 32 -2 17 -1 49 3 73 5 37 9
43 31 43 14 0 38 -7 53 -15z"/>
<path d="M1788 623 c12 -10 39 -47 60 -83 22 -36 45 -65 52 -65 8 0 32 32 56
70 23 39 53 76 66 82 21 12 19 13 -27 13 -34 0 -45 -3 -36 -9 16 -10 8 -38
-26 -90 l-16 -24 -23 39 c-27 43 -30 70 -11 77 6 3 -17 6 -52 6 -61 1 -63 0
-43 -16z"/>
<path d="M2105 627 c-74 -34 -85 -94 -26 -134 61 -41 194 -24 222 29 16 30 6
69 -23 91 -35 26 -130 33 -173 14z m118 -14 c23 -26 30 -68 16 -95 -16 -31
-28 -38 -65 -38 -40 0 -66 29 -66 75 0 20 8 45 18 56 22 24 75 25 97 2z"/>
<path d="M2398 625 c-53 -30 -64 -87 -23 -125 21 -20 39 -25 93 -28 58 -3 71
-1 92 17 l25 22 -32 -16 c-45 -21 -77 -19 -109 8 -19 17 -27 33 -27 55 0 70
73 96 132 46 l31 -26 0 29 0 28 -77 2 c-54 2 -86 -2 -105 -12z"/>
<path d="M2676 561 c-25 -44 -54 -82 -63 -84 -10 -3 2 -5 27 -6 29 0 40 2 31
8 -8 5 -11 16 -6 30 5 17 14 21 49 21 36 0 45 -4 54 -24 8 -19 8 -26 -1 -30
-7 -2 15 -4 48 -5 41 0 54 3 40 9 -11 4 -40 42 -65 84 -24 42 -50 76 -56 76
-7 0 -33 -36 -58 -79z m54 10 c15 -28 13 -31 -20 -31 -28 0 -29 1 -18 25 13
30 24 32 38 6z"/>
<path d="M2920 618 c-56 -38 -54 -102 3 -133 42 -22 149 -18 174 8 21 21 5 22
-21 2 -27 -20 -79 -19 -105 3 -12 9 -24 33 -27 52 -12 74 72 107 135 54 27
-23 31 -24 31 -7 0 32 -13 38 -85 41 -60 3 -75 0 -105 -20z"/>
<path d="M3153 633 c14 -4 17 -16 17 -78 0 -49 -4 -75 -12 -78 -7 -3 14 -6 47
-6 45 0 56 2 43 10 -14 8 -18 24 -18 74 0 50 4 66 18 74 13 8 1 10 -48 10 -36
-1 -57 -3 -47 -6z"/>
<path d="M3361 565 c-24 -42 -51 -80 -60 -85 -12 -7 -6 -9 24 -10 26 0 35 3
26 9 -8 5 -11 16 -6 30 9 31 89 31 106 0 9 -17 8 -23 -2 -30 -9 -5 9 -8 46 -8
33 1 53 3 45 5 -9 3 -38 40 -65 84 -28 44 -55 80 -61 80 -6 0 -30 -34 -53 -75z
m55 -23 c-9 -2 -25 -2 -36 0 -20 3 -20 4 -4 27 l17 24 20 -24 c17 -21 17 -24
3 -27z"/>
<path d="M1982 238 c-20 -34 -49 -74 -64 -90 l-26 -28 41 0 c27 0 37 3 29 9
-8 5 -12 17 -10 27 2 15 13 20 50 22 40 3 47 0 53 -19 5 -14 2 -25 -6 -30 -9
-5 11 -8 51 -8 36 1 57 3 48 6 -10 2 -40 42 -68 89 -28 46 -53 84 -56 84 -3 0
-22 -28 -42 -62z m38 -17 c15 -28 13 -31 -20 -31 -34 0 -35 2 -18 30 16 25 25
25 38 1z"/>
<path d="M1359 267 c-29 -19 -34 -29 -34 -61 0 -31 6 -43 27 -59 34 -25 125
-34 186 -18 34 10 42 16 42 36 0 13 6 26 13 28 6 3 -15 5 -48 5 -33 0 -52 -2
-42 -5 13 -3 17 -12 15 -31 -3 -24 -8 -27 -45 -30 -35 -3 -48 2 -68 22 -80 80
55 175 144 100 l31 -26 0 25 c0 21 -6 25 -46 31 -90 12 -139 7 -175 -17z"/>
<path d="M1653 283 c14 -4 17 -16 17 -74 0 -63 -2 -71 -22 -79 -16 -6 16 -8
97 -7 105 2 120 4 123 19 3 16 1 16 -25 3 -15 -8 -47 -15 -69 -15 -36 0 -43 3
-48 25 -12 45 20 61 56 28 17 -15 18 -14 18 20 l0 36 -27 -15 c-40 -20 -43
-18 -43 21 0 34 1 35 38 35 21 0 48 -7 60 -16 26 -18 35 -15 26 10 -5 13 -22
16 -113 15 -58 -1 -98 -3 -88 -6z"/>
<path d="M2190 277 c22 -11 25 -20 28 -79 3 -62 1 -67 -20 -71 -13 -2 2 -5 32
-5 42 -1 50 1 33 8 -20 8 -23 17 -23 61 l0 51 33 -24 c66 -50 135 -98 141 -98
3 0 6 34 6 75 0 69 2 76 23 85 17 7 10 9 -33 9 -43 0 -50 -2 -32 -9 18 -8 22
-17 22 -55 l0 -46 -75 56 c-63 47 -81 55 -117 55 -41 0 -42 -1 -18 -13z"/>
<path d="M2603 283 c14 -4 17 -16 17 -78 0 -62 -3 -74 -17 -78 -10 -3 11 -5
47 -5 36 0 57 2 48 5 -13 3 -18 15 -18 39 0 31 3 35 22 32 15 -2 29 -16 41
-40 16 -36 19 -38 65 -37 38 0 43 2 24 9 -12 5 -27 21 -32 36 -6 14 -20 28
-31 31 -19 5 -18 7 10 19 36 15 42 48 12 64 -11 5 -62 9 -113 9 -51 -1 -85 -3
-75 -6z m145 -30 c3 -17 -3 -26 -23 -33 -40 -15 -45 -13 -45 26 0 34 1 35 33
32 24 -2 33 -8 35 -25z"/>
<path d="M2883 283 c14 -4 17 -16 17 -78 0 -62 -3 -74 -17 -78 -10 -3 34 -5
98 -6 100 -1 118 1 123 15 9 24 3 26 -32 8 -17 -8 -49 -14 -69 -12 -35 3 -38
6 -41 36 -3 28 0 32 20 32 13 0 29 -5 36 -12 9 -9 12 -5 12 21 0 31 -1 32 -22
17 -35 -25 -48 -20 -48 19 0 33 2 35 35 35 20 0 50 -7 66 -16 29 -14 31 -14
27 3 -3 16 -15 18 -113 20 -61 0 -102 -1 -92 -4z"/>
<path d="M3153 279 c13 -8 17 -24 17 -74 0 -50 -4 -66 -17 -74 -14 -8 -2 -10
47 -10 36 1 58 3 49 6 -11 3 -18 20 -22 56 -8 62 -1 94 22 100 9 3 -13 5 -49
6 -49 0 -61 -2 -47 -10z"/>
<path d="M3308 279 c-40 -23 -10 -71 52 -84 47 -10 70 -23 70 -39 0 -35 -75
-34 -112 1 l-28 27 0 -30 c0 -29 1 -29 62 -32 72 -3 114 11 124 40 9 29 -22
54 -86 70 -36 9 -55 18 -55 28 0 23 72 26 96 4 21 -19 35 -13 26 11 -5 11 -22
15 -69 15 -35 0 -71 -5 -80 -11z"/>
</g>
</svg>
